# xmcd CD database file
#
# Track frame offsets:
#	150
#	13042
#	25615
#	39065
#	51967
#	65337
#	77495
#	89740
#	103420
#	116610
#	130502
#	141937
#	154145
#	168217
#	180230
#
# Disc length: 2571 seconds
#
# Revision: 0
# Processed by: cddbd v1.4PL0 Copyright (c) Steve Scherf et al.
# Submitted via: CDex 1.51
#
DISCID=b60a090f
DTITLE=Celia Cruz - ¡¡Assucarr!! Lo más sabroso (30 éxitos) cd2
DYEAR=1998
DGENRE=Salsa
TTITLE0=Mango Mangue
TTITLE1=Me voy a pinar del río
TTITLE2=El merengue
TTITLE3=Muñecas del cha cha cha
TTITLE4=Vengan a la Charanga
TTITLE5=Mi Soncito
TTITLE6=Tatalibaba
TTITLE7=Espérame en el cielo
TTITLE8=Mambo del amor
TTITLE9=Agua pa' mi
TTITLE10=La Cumbanchera
TTITLE11=Sandunguéate
TTITLE12=Tu voz
TTITLE13=Vamos a Guaranchar
TTITLE14=Camadde
EXTD=YEAR: 1998
EXTT0=
EXTT1=
EXTT2=
EXTT3=
EXTT4=
EXTT5=
EXTT6=
EXTT7=
EXTT8=
EXTT9=
EXTT10=
EXTT11=
EXTT12=
EXTT13=
EXTT14=
PLAYORDER=
